Coordinates
version=1
nRows=11
nColumns=40
inDegrees=yes

Units are S.I. units (second, meters, Newtons, ...)
Angles are in degrees.

endheader
time	pelvis_tilt	pelvis_list	pelvis_rotation	pelvis_tx	pelvis_ty	pelvis_tz	hip_flexion_r	hip_adduction_r	hip_rotation_r	knee_angle_r	knee_angle_r_beta	ankle_angle_r	subtalar_angle_r	mtp_angle_r	hip_flexion_l	hip_adduction_l	hip_rotation_l	knee_angle_l	knee_angle_l_beta	ankle_angle_l	subtalar_angle_l	mtp_angle_l	lumbar_extension	lumbar_bending	lumbar_rotation	arm_flex_r	arm_add_r	arm_rot_r	elbow_flex_r	pro_sup_r	wrist_flex_r	wrist_dev_r	arm_flex_l	arm_add_l	arm_rot_l	elbow_flex_l	pro_sup_l	wrist_flex_l	wrist_dev_l
      6.19750000	     -8.81209940	     -4.39404317	    -11.02652821	      0.96503638	      0.92480985	      0.44297296	     19.86836345	      1.82147779	     -3.30487927	     16.37570912	     16.37570912	      7.46426748	      3.67492663	     -1.61738718	      6.87197248	     -8.38575641	    -13.82491491	     20.68442579	     20.68442579	     18.51392661	    -12.87636738	      3.61195037	     -9.32175488	      7.71419604	      0.40531027	    -18.27804425	    -13.31860906	     -8.45816284	     33.05338745	     45.51816769	      0.00000000	      0.00000000	     43.94313428	    -24.55321322	     -2.89166106	     55.24383037	     47.55343321	      0.00000000	      0.00000000
      6.22000000	     -8.74628779	     -4.53010863	    -10.38086143	      0.96580570	      0.92518251	      0.44893923	     19.41542183	      2.17830790	     -3.77648263	     16.55261344	     16.55261344	      7.88329057	      3.31886626	     -1.75033383	      6.52316894	     -8.91306085	    -13.38668104	     20.72336951	     20.72336951	     18.34377499	    -12.58761692	      3.63894436	     -9.24369689	      7.52673455	      0.43184242	    -17.87325204	    -13.41322025	     -8.45411641	     33.22085221	     45.51554046	      0.00000000	      0.00000000	     42.83844266	    -23.81135035	     -2.66411633	     54.90936115	     47.51938204	      0.00000000	      0.00000000
      6.24250000	     -8.62875486	     -4.74999828	     -9.72589374	      0.96672252	      0.92554698	      0.45500866	     18.89264282	      2.62849230	     -4.24530775	     16.74113517	     16.74113517	      8.28474154	      2.92077657	     -1.86141128	      6.13704880	     -9.56141340	    -12.95638624	     20.82388771	     20.82388771	     18.20117662	    -12.24607721	      3.62435080	     -9.17945672	      7.40329502	      0.49366289	    -17.38800549	    -13.53770748	     -8.46139016	     33.44760595	     45.51196944	      0.00000000	      0.00000000	     41.46877866	    -23.03764512	     -2.43716314	     54.44011797	     47.48090823	      0.00000000	      0.00000000
      6.26500000	     -8.49882281	     -5.17317166	     -9.05153588	      0.96769321	      0.92578751	      0.46135258	     18.21343232	      3.38606234	     -4.49683344	     16.71020699	     16.71020699	      8.63820866	      2.09738163	     -1.72864901	      5.88087285	    -10.60300482	    -12.86443749	     21.28111524	     21.28111524	     18.20356932	    -11.29037790	      3.24512987	     -9.13047488	      7.52905154	      0.14163337	    -16.60253022	    -13.79155724	     -8.48125166	     34.09853786	     45.49963560	      0.00000000	      0.00000000	     39.72487114	    -22.65455779	     -2.47800034	     53.45225625	     47.45081240	      0.00000000	      0.00000000
      6.28750000	     -8.28657332	     -5.30016447	     -8.40937211	      0.96874148	      0.92599384	      0.46747371	     17.67726851	      3.75400378	     -4.93196275	     17.01335934	     17.01335934	      9.10802971	      1.66669424	     -1.87448470	      5.51633992	    -11.18258293	    -12.41214177	     21.55275383	     21.55275383	     18.02148514	    -11.01902103	      3.20582680	     -9.12179158	      7.23420829	      0.33603094	    -15.83841580	    -13.76007517	     -8.45732622	     34.43735244	     45.49121773	      0.00000000	      0.00000000	     37.96855365	    -21.53764787	     -2.17762791	     52.86809817	     47.40043941	      0.00000000	      0.00000000
      6.31000000	     -8.13163271	     -5.67167768	     -7.72653281	      0.96969866	      0.92581239	      0.47378229	     17.23150962	      4.46036468	     -5.17525384	     17.40016344	     17.40016344	      9.59047545	      0.69883983	     -1.83251106	      5.52335937	    -12.22423659	    -12.12011515	     22.44990886	     22.44990886	     17.93196724	    -10.42128200	      2.70917281	     -9.00539935	      7.28085021	     -0.04865601	    -14.66654002	    -13.93352328	     -8.48717622	     35.23735345	     45.47513535	      0.00000000	      0.00000000	     35.80721637	    -21.01456760	     -2.17903028	     51.50270316	     47.35929356	      0.00000000	      0.00000000
      6.33250000	     -7.90684898	     -5.88880540	     -7.05865215	      0.97066630	      0.92559250	      0.48002382	     16.80796015	      4.99449278	     -5.39018482	     17.90369612	     17.90369612	     10.09660793	     -0.19422020	     -1.80143737	      5.55557523	    -13.07286382	    -11.69114124	     23.45163139	     23.45163139	     17.69190310	    -10.08126567	      2.18078362	     -8.96459306	      7.09392520	     -0.20590228	    -13.35680717	    -13.93768192	     -8.44007521	     36.00033879	     45.45662095	      0.00000000	      0.00000000	     33.54570634	    -20.13111337	     -2.08710084	     50.13329863	     47.30932260	      0.00000000	      0.00000000
      6.35500000	     -7.67992911	     -6.06502219	     -6.39425797	      0.97148052	      0.92516181	      0.48618630	     16.48081068	      5.49219357	     -5.57809844	     18.53551624	     18.53551624	     10.64895036	     -1.17681691	     -1.72274484	      5.83120370	    -13.91158191	    -11.15168702	     24.83001620	     24.83001620	     17.29416670	    -10.01608881	      1.40420093	     -8.91167368	      6.86327118	     -0.39386186	    -11.79229369	    -13.89179546	     -8.34860254	     36.84904324	     45.43488250	      0.00000000	      0.00000000	     31.12213544	    -19.22504101	     -1.98552833	     48.43831781	     47.25301166	      0.00000000	      0.00000000
      6.37750000	     -7.44590930	     -6.20553383	     -5.71594553	      0.97212419	      0.92449032	      0.49222768	     16.25603918	      5.95378958	     -5.71192452	     19.32243901	     19.32243901	     11.27827206	     -2.21702346	     -1.60749981	      6.42613502	    -14.73690193	    -10.42779219	     26.71288863	     26.71288863	     16.67072223	    -10.28336356	      0.31633304	     -8.84912190	      6.60337906	     -0.64680583	     -9.96627529	    -13.81835307	     -8.21282750	     37.78025508	     45.41003970	      0.00000000	      0.00000000	     28.61114675	    -18.29749831	     -1.85226661	     46.41585275	     47.18961700	      0.00000000	      0.00000000
      6.40000000	     -7.18273968	     -6.30957954	     -5.01336165	      0.97246965	      0.92361143	      0.49803074	     16.09564627	      6.34805151	     -5.95813722	     20.21558019	     20.21558019	     11.89039129	     -3.21750444	     -1.53570223	      7.37845213	    -15.52560434	     -9.49762491	     29.18273052	     29.18273052	     15.93617871	    -10.90942769	     -0.83123557	     -8.90651377	      6.33696415	     -0.76952175	     -7.93282463	    -13.72539393	     -8.09843148	     38.76485401	     45.38433946	      0.00000000	      0.00000000	     26.03740883	    -17.32787264	     -1.63282355	     44.33944620	     47.11792356	      0.00000000	      0.00000000
      6.42250000	     -6.90617223	     -6.39467445	     -4.29830538	      0.97248417	      0.92244835	      0.50356063	     16.02394681	      6.70738318	     -6.17150253	     21.24035311	     21.24035311	     12.56711148	     -4.21904795	     -1.50095821	      8.73061704	    -16.27807493	     -8.36329227	     32.26709887	     32.26709887	     15.01404934	    -11.82180261	     -2.00733051	     -9.01058119	      6.08837894	     -0.91144574	     -5.65398025	    -13.63809533	     -8.00530366	     39.87849287	     45.35568857	      0.00000000	      0.00000000	     23.40331727	    -16.35665802	     -1.36610568	     42.10991439	     47.04005298	      0.00000000	      0.00000000
